<?xml version="1.0" standalone="no"?>
<!DOCTYPE svg PUBLIC "-//W3C//DTD SVG 20010904//EN"
 "http://www.w3.org/TR/2001/REC-SVG-20010904/DTD/svg10.dtd">
<svg version="1.0" xmlns="http://www.w3.org/2000/svg"
 width="500.000000pt" height="500.000000pt" viewBox="0 0 500.000000 500.000000"
 preserveAspectRatio="xMidYMid meet">
<metadata>
Created by potrace 1.14, written by Peter Selinger 2001-2017
</metadata>
<g transform="translate(0.000000,500.000000) scale(0.100000,-0.100000)"
fill="#000000" stroke="none">
<path d="M2485 4979 c-4 -5 -17 -14 -28 -20 -12 -5 -29 -13 -37 -19 -16 -11
-214 -126 -290 -169 -25 -13 -47 -27 -50 -30 -3 -3 -21 -14 -40 -23 -46 -22
-114 -61 -120 -69 -3 -3 -9 -8 -15 -10 -10 -4 -134 -75 -190 -108 -16 -10 -48
-28 -70 -41 -108 -62 -168 -96 -183 -105 -9 -5 -60 -35 -112 -65 -52 -30 -103
-59 -112 -65 -9 -5 -70 -40 -135 -78 -65 -37 -138 -79 -163 -94 -25 -14 -58
-34 -75 -43 -36 -21 -204 -117 -225 -130 -8 -5 -60 -34 -115 -66 -55 -32 -117
-68 -138 -81 l-37 -23 2 -1247 3 -1247 45 -27 c25 -16 59 -35 77 -43 17 -8 56
-30 87 -50 31 -20 59 -36 61 -36 3 0 24 -12 48 -27 23 -15 58 -35 77 -45 19
-9 53 -28 75 -42 50 -31 239 -140 330 -191 28 -15 55 -32 62 -37 7 -5 27 -17
45 -27 18 -9 78 -44 133 -76 94 -55 147 -85 205 -118 14 -7 65 -37 114 -65 49
-29 91 -52 93 -52 2 0 9 -5 16 -11 7 -5 64 -40 127 -76 63 -36 158 -90 210
-120 52 -30 113 -65 135 -79 22 -13 47 -27 55 -31 8 -4 43 -24 78 -45 34 -21
67 -38 73 -38 10 0 104 49 154 80 17 11 44 26 60 35 17 8 68 37 114 65 46 27
88 50 92 50 5 0 9 5 9 10 0 6 4 10 9 10 5 0 49 23 98 51 48 28 102 59 119 69
16 10 91 53 165 96 163 95 202 117 254 145 22 12 42 24 45 28 3 3 25 16 50 29
25 13 66 36 92 52 25 15 66 39 90 53 39 21 249 143 338 195 19 12 71 41 115
66 44 25 130 75 190 111 61 36 122 70 138 76 15 6 27 16 28 22 3 35 4 2456 0
2475 -3 22 -19 32 -130 91 -14 7 -54 31 -88 52 -34 22 -65 39 -68 39 -2 0 -34
18 -70 40 -36 22 -70 40 -75 40 -6 0 -10 5 -10 10 0 6 -4 10 -9 10 -4 0 -48
23 -97 52 -49 28 -100 58 -114 65 -69 39 -163 93 -460 266 -47 27 -129 75
-183 106 -54 31 -110 63 -125 72 -15 9 -45 26 -67 39 -22 12 -141 81 -265 153
-289 168 -393 227 -402 227 -4 0 -10 -5 -13 -11z m76 -317 c24 -16 59 -35 77
-43 17 -7 32 -17 32 -21 0 -5 4 -8 9 -8 5 0 59 -29 120 -65 60 -36 114 -65
120 -65 5 0 11 -3 13 -8 2 -4 44 -31 93 -59 50 -28 140 -80 201 -115 61 -36
117 -68 125 -71 8 -4 21 -11 29 -17 22 -14 212 -125 230 -133 8 -4 29 -16 45
-26 39 -24 140 -83 185 -107 19 -10 37 -22 38 -26 2 -5 8 -8 13 -8 5 0 38 -18
74 -40 36 -22 68 -40 71 -40 3 0 28 -15 57 -33 29 -18 84 -51 122 -72 39 -22
77 -44 87 -50 9 -5 37 -21 62 -34 l46 -25 -2 -1099 -3 -1099 -40 -24 c-22 -13
-47 -27 -55 -31 -24 -13 -162 -92 -205 -119 -22 -13 -51 -30 -65 -37 -14 -6
-28 -15 -31 -20 -3 -5 -10 -9 -15 -9 -5 -1 -18 -7 -29 -14 -11 -7 -43 -25 -70
-41 -84 -47 -274 -157 -313 -180 -20 -13 -75 -44 -122 -69 -47 -26 -87 -50
-90 -54 -3 -4 -43 -28 -90 -54 -47 -25 -103 -57 -125 -71 -22 -13 -51 -30 -65
-38 -14 -8 -43 -24 -65 -36 -22 -12 -53 -31 -70 -42 -16 -10 -37 -22 -45 -26
-8 -3 -58 -32 -110 -63 -52 -31 -102 -59 -110 -63 -8 -4 -22 -11 -30 -17 -8
-5 -46 -28 -84 -49 l-69 -40 -41 21 c-23 11 -43 23 -46 27 -3 3 -14 11 -25 17
-100 54 -144 79 -165 94 -14 9 -32 20 -40 24 -8 3 -36 19 -62 34 -25 15 -84
48 -130 74 -46 27 -128 75 -183 108 -55 33 -117 67 -137 77 -21 10 -38 21 -38
25 0 5 -4 8 -9 8 -5 0 -64 32 -132 72 -68 39 -141 81 -161 92 -20 12 -74 43
-120 70 -46 27 -103 60 -128 74 -25 14 -76 44 -115 67 -38 22 -77 44 -85 48
-8 4 -28 16 -45 27 -16 11 -39 24 -50 30 -11 5 -42 23 -70 39 -27 17 -65 38
-82 47 l-33 16 0 1104 0 1104 48 25 c55 30 90 50 227 130 55 32 159 92 230
133 72 41 144 83 160 92 17 10 68 39 115 66 47 26 87 51 90 54 3 3 23 14 45
24 22 11 42 22 45 25 3 4 52 34 110 66 58 33 113 64 122 70 9 5 54 31 100 58
46 26 128 74 183 107 55 33 111 65 125 72 14 7 52 29 85 49 33 19 87 50 120
69 33 18 64 36 70 41 15 14 28 11 76 -19z"/>
<path d="M2445 4389 c-38 -23 -83 -49 -100 -59 -96 -55 -285 -166 -315 -185
-19 -12 -53 -33 -75 -47 -22 -13 -48 -27 -58 -31 -16 -6 -17 -88 -15 -1573 l3
-1568 120 -77 c66 -43 122 -78 125 -78 3 -1 5 352 5 784 l-1 785 478 0 478 0
0 33 c1 17 1 87 2 154 1 68 -1 126 -4 129 -3 3 -219 6 -480 7 l-473 2 0 613
c0 338 2 617 5 621 5 7 70 44 238 133 40 21 87 47 104 58 30 18 31 18 77 -7
25 -14 53 -31 61 -38 8 -7 20 -14 25 -16 9 -4 151 -87 185 -110 44 -28 200
-122 235 -140 22 -12 42 -25 45 -29 3 -4 15 -10 28 -14 16 -5 24 -3 28 8 3 9
35 60 70 113 35 54 63 102 61 108 -2 5 -12 15 -23 20 -10 6 -50 29 -89 52 -38
22 -126 74 -195 114 -69 41 -132 79 -141 84 -9 6 -34 20 -55 32 -51 28 -206
120 -220 130 -13 10 -53 33 -56 33 -2 0 -34 -19 -73 -41z"/>
<path d="M1600 3852 c-25 -15 -52 -31 -60 -35 -8 -4 -24 -13 -35 -20 -11 -7
-46 -27 -77 -45 l-58 -33 -2 -622 -3 -622 -24 74 c-12 40 -24 78 -25 85 -3 13
-40 138 -62 211 -9 28 -18 57 -20 65 -2 8 -10 40 -19 70 -9 30 -20 69 -25 85
-5 17 -16 55 -25 85 -23 76 -47 163 -49 175 -1 6 -6 24 -13 40 -6 17 -16 49
-22 73 -7 23 -16 42 -22 42 -9 0 -50 -21 -59 -30 -10 -10 -153 -90 -161 -90
-5 0 -8 -399 -7 -917 l3 -916 30 -18 c17 -10 66 -38 110 -63 l80 -45 5 627 c5
617 5 626 22 557 16 -67 36 -142 92 -355 51 -191 76 -287 106 -395 16 -60 32
-119 33 -130 2 -11 7 -30 11 -42 4 -12 9 -31 11 -42 2 -11 11 -44 19 -73 25
-84 77 -280 82 -312 11 -57 23 -73 81 -105 32 -17 73 -41 92 -52 18 -11 35
-18 37 -16 2 2 3 637 2 1411 l-3 1407 -45 -29z"/>
<path d="M3355 3775 c-36 -58 -65 -109 -65 -114 0 -5 6 -12 13 -15 6 -3 24
-14 39 -24 15 -9 84 -53 153 -96 69 -44 126 -82 126 -85 1 -3 2 -515 3 -1138
1 -623 5 -1135 8 -1138 3 -4 26 5 50 19 23 14 85 49 136 77 l92 53 0 983 0
984 98 -67 c53 -37 132 -91 175 -121 42 -29 79 -53 82 -53 3 0 5 69 5 154 l0
153 -62 38 c-72 44 -157 100 -175 115 -7 5 -15 10 -18 10 -6 0 -119 71 -140
87 -5 4 -27 17 -47 28 -21 11 -38 22 -38 26 0 3 -18 14 -40 24 -22 10 -40 21
-40 25 0 3 -16 14 -36 23 -19 10 -40 22 -47 27 -25 21 -88 60 -97 60 -6 0 -10
5 -10 10 0 6 -6 10 -13 10 -7 0 -22 8 -33 18 -43 41 -49 37 -119 -73z"/>
</g>
</svg>
